<?xml version="1.0" encoding="utf-8"?>
<!-- Generator: Adobe Illustrator 19.0.1, SVG Export Plug-In . SVG Version: 6.00 Build 0)  -->
<svg version="1.1" id="Capa_1" xmlns="http://www.w3.org/2000/svg" xmlns:xlink="http://www.w3.org/1999/xlink" x="0px" y="0px"
	 viewBox="-267 390.9 60 60" style="enable-background:new -267 390.9 60 60;" xml:space="preserve">
<style type="text/css">
	.st0{fill:none;}
	.st1{fill:#808080;}
</style>
<g>
	<path class="st0" d="M-237,402.9c-3.9,0-7,3.1-7,7s3.1,7,7,7s7-3.1,7-7S-233.1,402.9-237,402.9z M-237,414.9c-2.8,0-5-2.2-5-5
		s2.2-5,5-5s5,2.2,5,5S-234.2,414.9-237,414.9z"/>
	<path class="st1" d="M-223.6,396.5c-3.6-3.6-8.4-5.6-13.6-5.6s-9.9,2-13.6,5.6c-6.7,6.7-7.5,19.3-1.8,27l15.4,22.2l15.3-22.2
		C-216.1,415.8-216.9,403.2-223.6,396.5z M-244,409.9c0-3.9,3.1-7,7-7s7,3.1,7,7s-3.1,7-7,7S-244,413.8-244,409.9z"/>
	<path class="st1" d="M-224.9,433.9c-0.6-0.1-1,0.3-1.1,0.9c-0.1,0.5,0.3,1,0.9,1.1c10.5,1.2,16.1,4.6,16.1,6.5
		c0,2.7-10.7,6.5-28,6.5s-28-3.8-28-6.5c0-1.9,5.6-5.3,16.1-6.5c0.5-0.1,0.9-0.6,0.9-1.1c-0.1-0.5-0.6-0.9-1.1-0.9
		c-10.5,1.2-17.9,4.7-17.9,8.5c0,4.2,10.3,8.5,30,8.5s30-4.3,30-8.5C-207,438.6-214.4,435.1-224.9,433.9z"/>
</g>
</svg>
